<?xml version="1.0" encoding="UTF-8" standalone="no"?>
<!DOCTYPE svg PUBLIC "-//W3C//DTD SVG 1.1//EN" "http://www.w3.org/Graphics/SVG/1.1/DTD/svg11.dtd">
<svg width="100%" height="100%" viewBox="0 0 800 600" version="1.1" xmlns="http://www.w3.org/2000/svg" xmlns:xlink="http://www.w3.org/1999/xlink" xml:space="preserve" xmlns:serif="http://www.serif.com/" style="fill-rule:evenodd;clip-rule:evenodd;stroke-linejoin:round;stroke-miterlimit:2;">
    <g id="github" transform="matrix(1.39088,0,0,5.51443,-2.63022,6.22269)">
        <rect x="1.891" y="-1.128" width="575.177" height="816.041" style="fill:rgb(13,17,23);"/>
    </g>
    <g id="Description" transform="matrix(0.984482,0,0,2.28157,1.30322,-750.068)">
        <g transform="matrix(1.01576,0,0,0.438295,-87.4064,348.298)">
            <text x="124.447px" y="192.228px" style="font-family:'FiraCode-Medium', 'Fira Code';font-weight:500;font-size:14px;fill:rgb(25,124,250);">A simple mod that let custom the Enderman behavior.</text>
            <g transform="matrix(14,0,0,14,787.831,206.254)">
                <path d="M0.307,-0.774C0.33,-0.774 0.348,-0.767 0.362,-0.753C0.376,-0.739 0.383,-0.722 0.383,-0.702C0.383,-0.681 0.376,-0.664 0.362,-0.65C0.348,-0.636 0.33,-0.629 0.307,-0.629C0.285,-0.629 0.267,-0.636 0.253,-0.65C0.239,-0.664 0.232,-0.681 0.232,-0.702C0.232,-0.722 0.239,-0.739 0.253,-0.753C0.267,-0.767 0.285,-0.774 0.307,-0.774ZM0.387,-0.503L0.387,-0.084L0.534,-0.084L0.534,-0L0.11,-0L0.11,-0.084L0.272,-0.084L0.272,-0.418L0.115,-0.418L0.115,-0.503L0.387,-0.503Z" style="fill:rgb(25,124,250);fill-rule:nonzero;"/>
            </g>
            <text x="124.447px" y="206.254px" style="font-family:'FiraCode-Medium', 'Fira Code';font-weight:500;font-size:14px;fill:rgb(25,124,250);">You can disable Endermans from picking up block, from attacking a player in f<tspan x="796.447px " y="206.254px ">r</tspan>st, etc.</text>
            <g transform="matrix(14,0,0,14,374.293,248.33)">
                <path d="M0.307,-0.774C0.33,-0.774 0.348,-0.767 0.362,-0.753C0.376,-0.739 0.383,-0.722 0.383,-0.702C0.383,-0.681 0.376,-0.664 0.362,-0.65C0.348,-0.636 0.33,-0.629 0.307,-0.629C0.285,-0.629 0.267,-0.636 0.253,-0.65C0.239,-0.664 0.232,-0.681 0.232,-0.702C0.232,-0.722 0.239,-0.739 0.253,-0.753C0.267,-0.767 0.285,-0.774 0.307,-0.774ZM0.387,-0.503L0.387,-0.084L0.534,-0.084L0.534,-0L0.11,-0L0.11,-0.084L0.272,-0.084L0.272,-0.418L0.115,-0.418L0.115,-0.503L0.387,-0.503Z" style="fill:rgb(25,124,250);fill-rule:nonzero;"/>
            </g>
            <text x="124.447px" y="248.33px" style="font-family:'FiraCode-Medium', 'Fira Code';font-weight:500;font-size:14px;fill:rgb(25,124,250);">The following things are conf<tspan x="382.908px " y="248.33px ">g</tspan>urable:</text>
            <text x="160.447px" y="276.381px" style="font-family:'FiraCode-Medium', 'Fira Code';font-weight:500;font-size:14px;fill:rgb(25,124,250);"><tspan x="160.447px " y="276.381px ">-</tspan> Disallow Endermans from picking up bloc</text>
            <g transform="matrix(14,0,0,14,530.908,304.432)">
                <path d="M0.307,-0.774C0.33,-0.774 0.348,-0.767 0.362,-0.753C0.376,-0.739 0.383,-0.722 0.383,-0.702C0.383,-0.681 0.376,-0.664 0.362,-0.65C0.348,-0.636 0.33,-0.629 0.307,-0.629C0.285,-0.629 0.267,-0.636 0.253,-0.65C0.239,-0.664 0.232,-0.681 0.232,-0.702C0.232,-0.722 0.239,-0.739 0.253,-0.753C0.267,-0.767 0.285,-0.774 0.307,-0.774ZM0.387,-0.503L0.387,-0.084L0.534,-0.084L0.534,-0L0.11,-0L0.11,-0.084L0.272,-0.084L0.272,-0.418L0.115,-0.418L0.115,-0.503L0.387,-0.503Z" style="fill:rgb(25,124,250);fill-rule:nonzero;"/>
            </g>
            <text x="160.447px" y="304.432px" style="font-family:'FiraCode-Medium', 'Fira Code';font-weight:500;font-size:14px;fill:rgb(25,124,250);"><tspan x="160.447px " y="304.432px ">-</tspan> Disable Endermans from attacking you in f<tspan x="539.524px " y="304.432px ">r</tspan>st</text>
            <text x="160.447px" y="332.483px" style="font-family:'FiraCode-Medium', 'Fira Code';font-weight:500;font-size:14px;fill:rgb(25,124,250);"><tspan x="160.447px " y="332.483px ">-</tspan> Disable Endermans from teleporting randomly</text>
            <text x="160.447px" y="360.533px" style="font-family:'FiraCode-Medium', 'Fira Code';font-weight:500;font-size:14px;fill:rgb(25,124,250);"><tspan x="160.447px " y="360.533px ">-</tspan> Allow you to customize the randomly min. and max. teleportation distance</text>
            <g transform="matrix(14,0,0,14,296.754,388.584)">
                <path d="M0.307,-0.774C0.33,-0.774 0.348,-0.767 0.362,-0.753C0.376,-0.739 0.383,-0.722 0.383,-0.702C0.383,-0.681 0.376,-0.664 0.362,-0.65C0.348,-0.636 0.33,-0.629 0.307,-0.629C0.285,-0.629 0.267,-0.636 0.253,-0.65C0.239,-0.664 0.232,-0.681 0.232,-0.702C0.232,-0.722 0.239,-0.739 0.253,-0.753C0.267,-0.767 0.285,-0.774 0.307,-0.774ZM0.387,-0.503L0.387,-0.084L0.534,-0.084L0.534,-0L0.11,-0L0.11,-0.084L0.272,-0.084L0.272,-0.418L0.115,-0.418L0.115,-0.503L0.387,-0.503Z" style="fill:rgb(25,124,250);fill-rule:nonzero;"/>
            </g>
            <g transform="matrix(14,0,0,14,331.216,388.584)">
                <path d="M0.307,-0.774C0.33,-0.774 0.348,-0.767 0.362,-0.753C0.376,-0.739 0.383,-0.722 0.383,-0.702C0.383,-0.681 0.376,-0.664 0.362,-0.65C0.348,-0.636 0.33,-0.629 0.307,-0.629C0.285,-0.629 0.267,-0.636 0.253,-0.65C0.239,-0.664 0.232,-0.681 0.232,-0.702C0.232,-0.722 0.239,-0.739 0.253,-0.753C0.267,-0.767 0.285,-0.774 0.307,-0.774ZM0.387,-0.503L0.387,-0.084L0.534,-0.084L0.534,-0L0.11,-0L0.11,-0.084L0.272,-0.084L0.272,-0.418L0.115,-0.418L0.115,-0.503L0.387,-0.503Z" style="fill:rgb(25,124,250);fill-rule:nonzero;"/>
            </g>
            <text x="124.447px" y="388.584px" style="font-family:'FiraCode-Medium', 'Fira Code';font-weight:500;font-size:14px;fill:rgb(25,124,250);">location of the conf<tspan x="305.37px " y="388.584px ">g</tspan> f<tspan x="339.831px " y="388.584px ">l</tspan>e:</text>
            <g transform="matrix(14,0,0,14,408.754,388.584)">
                <path d="M0.307,-0.774C0.33,-0.774 0.348,-0.767 0.362,-0.753C0.376,-0.739 0.383,-0.722 0.383,-0.702C0.383,-0.681 0.376,-0.664 0.362,-0.65C0.348,-0.636 0.33,-0.629 0.307,-0.629C0.285,-0.629 0.267,-0.636 0.253,-0.65C0.239,-0.664 0.232,-0.681 0.232,-0.702C0.232,-0.722 0.239,-0.739 0.253,-0.753C0.267,-0.767 0.285,-0.774 0.307,-0.774ZM0.387,-0.503L0.387,-0.084L0.534,-0.084L0.534,-0L0.11,-0L0.11,-0.084L0.272,-0.084L0.272,-0.418L0.115,-0.418L0.115,-0.503L0.387,-0.503Z" style="fill:rgb(255,212,59);fill-rule:nonzero;"/>
            </g>
            <text x="374.293px" y="388.584px" style="font-family:'FiraCode-Medium', 'Fira Code';font-weight:500;font-size:14px;fill:rgb(255,212,59);">conf<tspan x="417.37px " y="388.584px ">g</tspan></text>
            <text x="425.985px" y="388.584px" style="font-family:'FiraCode-Medium', 'Fira Code';font-weight:500;font-size:14px;fill:rgb(8,239,76);">/</text>
            <text x="434.601px" y="388.584px" style="font-family:'FiraCode-Medium', 'Fira Code';font-weight:500;font-size:14px;fill:rgb(255,212,59);">customendermanbehavior</text>
            <text x="624.139px" y="388.584px" style="font-family:'FiraCode-Medium', 'Fira Code';font-weight:500;font-size:14px;fill:rgb(8,239,76);">/</text>
            <g transform="matrix(14,0,0,14,667.216,388.584)">
                <path d="M0.307,-0.774C0.33,-0.774 0.348,-0.767 0.362,-0.753C0.376,-0.739 0.383,-0.722 0.383,-0.702C0.383,-0.681 0.376,-0.664 0.362,-0.65C0.348,-0.636 0.33,-0.629 0.307,-0.629C0.285,-0.629 0.267,-0.636 0.253,-0.65C0.239,-0.664 0.232,-0.681 0.232,-0.702C0.232,-0.722 0.239,-0.739 0.253,-0.753C0.267,-0.767 0.285,-0.774 0.307,-0.774ZM0.387,-0.503L0.387,-0.084L0.534,-0.084L0.534,-0L0.11,-0L0.11,-0.084L0.272,-0.084L0.272,-0.418L0.115,-0.418L0.115,-0.503L0.387,-0.503Z" style="fill:rgb(255,20,109);fill-rule:nonzero;"/>
            </g>
            <text x="632.754px" y="388.584px" style="font-family:'FiraCode-Medium', 'Fira Code';font-weight:500;font-size:14px;fill:rgb(255,20,109);">conf<tspan x="675.831px " y="388.584px ">g</tspan>.toml</text>
            <text x="124.447px" y="444.686px" style="font-family:'FiraCode-Medium', 'Fira Code';font-weight:500;font-size:14px;fill:rgb(25,124,250);">This mod is</text>
            <text x="227.831px" y="444.686px" style="font-family:'FiraCode-Medium', 'Fira Code';font-weight:500;font-size:14px;fill:rgb(255,10,73);">SERVER</text>
            <text x="288.139px" y="444.686px" style="font-family:'FiraCode-Medium', 'Fira Code';font-weight:500;font-size:14px;fill:rgb(25,124,250);">side but will works in singleplayer</text>
        </g>
        <g transform="matrix(1.01576,0,0,0.438295,-51.0118,319.638)">
            <text x="88.917px" y="203.562px" style="font-family:'FiraCode-Medium', 'Fira Code';font-weight:500;font-size:30px;fill:rgb(9,228,231);">Description</text>
        </g>
    </g>
    <g transform="matrix(1,0,0,1,-33.6857,-91.1118)">
        <text id="Title" x="166.732px" y="154.792px" style="font-family:'FiraCode-SemiBold', 'Fira Code';font-weight:600;font-size:36px;fill:rgb(25,83,250);">Custom Enderman Behavior</text>
    </g>
</svg>
